<svg width="400" height="400" viewBox="0 0 400 400" fill="none" xmlns="http://www.w3.org/2000/svg">
  <path d="M100 200C100 150 140 140 160 140H240C260 140 300 150 300 200V240C300 290 260 300 200 300C140 300 100 290 100 240V200Z" stroke="#2C4C3B" stroke-width="2" stroke-linecap="round" stroke-linejoin="round"/>
  <path d="M300 180C320 180 340 190 340 210C340 230 320 240 300 240" stroke="#2C4C3B" stroke-width="2" stroke-linecap="round" stroke-linejoin="round"/>
  <path d="M120 320H280" stroke="#2C4C3B" stroke-width="2" stroke-linecap="round" stroke-linejoin="round"/>
  <path d="M180 100C180 100 190 80 180 60" stroke="#2C4C3B" stroke-width="1.5" stroke-linecap="round" opacity="0.4"/>
  <path d="M210 110C210 110 220 90 210 70" stroke="#2C4C3B" stroke-width="1.5" stroke-linecap="round" opacity="0.4"/>
</svg>
